<?xml version="1.0" standalone="no"?><!DOCTYPE svg PUBLIC "-//W3C//DTD SVG 1.1//EN" "http://www.w3.org/Graphics/SVG/1.1/DTD/svg11.dtd"><svg t="1608394574824" class="icon" viewBox="0 0 1024 1024" version="1.1" xmlns="http://www.w3.org/2000/svg" p-id="7432" xmlns:xlink="http://www.w3.org/1999/xlink" width="200" height="200"><defs><style type="text/css"></style></defs><path d="M520.272842 491.627789a218.866526 218.866526 0 1 1 218.866526-218.866526 220.079158 220.079158 0 0 1-218.866526 218.866526z m0-374.757052a158.989474 158.989474 0 1 0 158.989474 158.989474 159.959579 159.959579 0 0 0-158.989474-159.016422z" fill="#83D2EA" p-id="7433"></path><path d="M865.010526 959.326316a28.321684 28.321684 0 0 1-29.992421-29.992421 314.799158 314.799158 0 0 0-629.598316 0 29.992421 29.992421 0 1 1-59.957894 0 374.757053 374.757053 0 0 1 749.541052 0A30.046316 30.046316 0 0 1 865.010526 959.326316z" fill="#208BB5" p-id="7434"></path></svg>