<?xml version="1.0" standalone="no"?><!DOCTYPE svg PUBLIC "-//W3C//DTD SVG 1.1//EN" "http://www.w3.org/Graphics/SVG/1.1/DTD/svg11.dtd"><svg t="1608394533676" class="icon" viewBox="0 0 1024 1024" version="1.1" xmlns="http://www.w3.org/2000/svg" p-id="6455" xmlns:xlink="http://www.w3.org/1999/xlink" width="200" height="200"><defs><style type="text/css"></style></defs><path d="M839.168 359.68l-65.28 358.4H279.296l-65.28-358.4h625.152m60.16-102.4H91.392l94.208 517.888c4.864 26.368 25.856 45.312 50.176 45.312h581.632c24.32 0 45.312-18.944 50.176-45.312l81.92-450.56c6.4-34.816-17.664-67.328-50.176-67.328zM296.192 864a51.2 51.2 0 1 0 51.2 51.2 51.456 51.456 0 0 0-51.2-51.2zM756.992 864a51.2 51.2 0 1 0 51.2 51.2 51.456 51.456 0 0 0-51.2-51.2z" fill="#4C4C4C" p-id="6456"></path><path d="M124.928 103.68a56.064 56.064 0 0 0-9.216 0.768 51.2 51.2 0 0 0-41.216 59.648l36.608 201.472 100.864-18.432-36.608-201.472a51.712 51.712 0 0 0-50.432-41.984z" fill="#4C4C4C" p-id="6457"></path><path d="M673.536 413.184a51.456 51.456 0 0 1 40.704 59.904l-29.184 150.784a51.456 51.456 0 0 1-59.904 40.704 51.456 51.456 0 0 1-40.704-59.904l29.184-150.784a51.456 51.456 0 0 1 59.904-40.704z" fill="#FCC53A" p-id="6458"></path></svg>